<svg xmlns="http://www.w3.org/2000/svg" viewBox="0 0 1758.64 911.49"><defs><style>.bb7a6cbc-32fe-448f-a81a-1b9607e4a8ab{fill:#fff;}.b7a3c474-816b-4b38-a13c-021c8ef31fbf{fill:#535761;}</style></defs><g id="ed0dbd08-3b57-4796-8436-0186a4c5b0aa" data-name="Layer 4"><circle class="bb7a6cbc-32fe-448f-a81a-1b9607e4a8ab" cx="551" cy="168.49" r="3.08"/><circle class="bb7a6cbc-32fe-448f-a81a-1b9607e4a8ab" cx="1445.15" cy="324.55" r="3.08"/><circle class="bb7a6cbc-32fe-448f-a81a-1b9607e4a8ab" cx="515.15" cy="754.55" r="3.08"/><circle class="bb7a6cbc-32fe-448f-a81a-1b9607e4a8ab" cx="1065.23" cy="259.69" r="3.08"/><circle class="bb7a6cbc-32fe-448f-a81a-1b9607e4a8ab" cx="75.23" cy="319.69" r="3.08"/><circle class="bb7a6cbc-32fe-448f-a81a-1b9607e4a8ab" cx="1585.23" cy="89.69" r="3.08"/><circle class="bb7a6cbc-32fe-448f-a81a-1b9607e4a8ab" cx="1135.23" cy="659.69" r="3.08"/><circle class="bb7a6cbc-32fe-448f-a81a-1b9607e4a8ab" cx="1625.23" cy="789.69" r="3.08"/><circle class="bb7a6cbc-32fe-448f-a81a-1b9607e4a8ab" cx="155.23" cy="9.69" r="3.08"/><circle class="bb7a6cbc-32fe-448f-a81a-1b9607e4a8ab" cx="395.23" cy="539.69" r="3.08"/><circle class="bb7a6cbc-32fe-448f-a81a-1b9607e4a8ab" cx="155.23" cy="699.69" r="3.08"/><circle class="bb7a6cbc-32fe-448f-a81a-1b9607e4a8ab" cx="1685.23" cy="469.69" r="3.08"/><circle class="b7a3c474-816b-4b38-a13c-021c8ef31fbf" cx="1075.23" cy="39.69" r="3.08"/><circle class="b7a3c474-816b-4b38-a13c-021c8ef31fbf" cx="891.19" cy="446.16" r="3.08"/><circle class="b7a3c474-816b-4b38-a13c-021c8ef31fbf" cx="301.19" cy="416.16" r="3.08"/><circle class="b7a3c474-816b-4b38-a13c-021c8ef31fbf" cx="441.19" cy="76.16" r="3.08"/><circle class="b7a3c474-816b-4b38-a13c-021c8ef31fbf" cx="991.19" cy="776.16" r="3.08"/><circle class="b7a3c474-816b-4b38-a13c-021c8ef31fbf" cx="11.19" cy="416.16" r="3.08"/><circle class="b7a3c474-816b-4b38-a13c-021c8ef31fbf" cx="1511.19" cy="376.16" r="3.08"/><circle class="b7a3c474-816b-4b38-a13c-021c8ef31fbf" cx="1711.19" cy="616.16" r="3.08"/><circle class="b7a3c474-816b-4b38-a13c-021c8ef31fbf" cx="871.19" cy="56.16" r="3.08"/><circle class="b7a3c474-816b-4b38-a13c-021c8ef31fbf" cx="871.19" cy="816.16" r="3.08"/><circle class="b7a3c474-816b-4b38-a13c-021c8ef31fbf" cx="291.19" cy="786.16" r="3.08"/><circle class="b7a3c474-816b-4b38-a13c-021c8ef31fbf" cx="111.19" cy="176.16" r="3.08"/><circle class="b7a3c474-816b-4b38-a13c-021c8ef31fbf" cx="351.19" cy="206.16" r="3.08"/><circle class="b7a3c474-816b-4b38-a13c-021c8ef31fbf" cx="1321.19" cy="176.16" r="3.08"/><circle class="b7a3c474-816b-4b38-a13c-021c8ef31fbf" cx="1351.19" cy="716.16" r="3.08"/><circle class="b7a3c474-816b-4b38-a13c-021c8ef31fbf" cx="1731.19" cy="256.16" r="3.08"/><circle class="b7a3c474-816b-4b38-a13c-021c8ef31fbf" cx="1611.19" cy="886.16" r="3.08"/></g></svg>